<!-- <?xml version="1.0" standalone="no"?>
<!DOCTYPE svg PUBLIC "-//W3C//DTD SVG 20010904//EN"
 "http://www.w3.org/TR/2001/REC-SVG-20010904/DTD/svg10.dtd"> -->
<svg version="1.0" xmlns="http://www.w3.org/2000/svg"
 width="1200.000000pt" height="1100.000000pt" viewBox="0 0 1200.000000 1200.000000"
 preserveAspectRatio="xMidYMid meet">

<g transform="translate(0.000000,1200.000000) scale(0.100000,-0.100000)"
fill="#ffffff" stroke="4">
<path fill="#A53DFF" d="M3860 7884 c-116 -17 -179 -31 -265 -61 -507 -176 -1090 -629 -1576
-1223 -364 -446 -584 -917 -566 -1210 7 -107 28 -166 78 -224 62 -70 133 -100
251 -104 118 -5 199 8 343 56 270 89 629 305 932 561 40 34 75 61 78 61 3 0 5
-65 5 -145 l0 -145 85 0 85 0 0 226 0 226 126 131 c420 436 718 904 815 1282
17 66 23 119 23 200 1 133 -16 192 -76 260 -52 59 -120 93 -211 105 -74 10
-84 10 -127 4z m160 -202 c53 -27 73 -69 72 -160 -1 -178 -97 -427 -275 -712
-80 -129 -231 -334 -235 -321 -3 8 -114 11 -353 11 l-349 0 0 -80 0 -80 130 0
130 0 0 -172 0 -173 -96 -85 c-156 -138 -269 -225 -435 -335 -337 -226 -640
-347 -826 -332 -112 9 -146 52 -146 182 0 223 171 590 445 955 246 328 630
704 958 937 253 180 544 325 740 369 85 19 199 17 240 -4z m-567 -1356 c-4 -7
-38 -46 -75 -86 l-68 -72 0 86 0 86 75 0 c62 0 74 -3 68 -14z"/>
<path d="M4760 6010 l0 -560 80 0 80 0 0 107 c0 102 1 108 27 135 15 15 32 28
39 28 7 0 50 -61 95 -135 l84 -135 92 0 92 0 -86 128 c-47 70 -102 149 -120
175 -19 27 -32 55 -29 62 2 7 50 48 105 91 l101 79 -33 33 c-57 60 -51 62
-213 -64 l-149 -116 -3 366 -2 366 -80 0 -80 0 0 -560z"/>
<path fill="#A53DFF" d="M6475 6165 c-143 -201 -263 -365 -266 -365 -3 0 -118 159 -254 353
-136 193 -252 356 -256 361 -5 6 -9 -225 -9 -527 l0 -537 75 0 75 0 0 293 1
292 20 -25 c12 -14 94 -126 182 -249 157 -217 161 -223 178 -203 9 12 89 125
179 251 89 127 166 234 171 237 5 3 9 -119 9 -295 l0 -301 80 0 80 0 0 540 c0
297 -1 540 -2 540 -2 -1 -120 -165 -263 -365z"/>
<path fill="#A53DFF" d="M3872 6049 c-111 -55 -165 -150 -166 -289 -2 -196 95 -308 276 -318
93 -5 151 13 210 66 l38 34 0 -46 0 -46 80 0 80 0 0 305 0 305 -74 0 -73 0 -7
-42 -7 -41 -37 36 c-52 50 -98 67 -185 67 -62 0 -83 -5 -135 -31z m268 -114
c64 -33 90 -84 90 -175 0 -92 -26 -142 -93 -177 -37 -19 -127 -19 -165 1 -61
31 -112 114 -112 181 0 75 56 155 125 180 44 16 113 12 155 -10z"/>
<path fill="#A53DFF" d="M7262 6049 c-111 -55 -165 -150 -166 -289 -2 -196 95 -308 276 -318
93 -5 151 13 210 66 l38 34 0 -46 0 -46 80 0 80 0 0 305 0 305 -74 0 -73 0 -7
-42 -7 -41 -37 36 c-52 50 -98 67 -185 67 -62 0 -83 -5 -135 -31z m268 -114
c64 -33 90 -84 90 -175 0 -92 -26 -142 -93 -177 -37 -19 -127 -19 -165 1 -61
31 -112 114 -112 181 0 75 56 155 125 180 44 16 113 12 155 -10z"/>
<path d="M8452 6054 c-28 -14 -71 -48 -96 -75 -24 -27 -47 -49 -50 -49 -3 0
-6 28 -8 63 l-3 62 -72 3 -73 3 0 -306 0 -305 80 0 80 0 0 153 c0 145 1 156
26 205 36 73 109 122 180 122 23 0 24 3 24 75 0 88 -5 91 -88 49z"/>
</g>
</svg>
